<svg xmlns="http://www.w3.org/2000/svg" width="2048" height="2048" viewBox="0 0 2048 2048"><g transform="translate(0 0)"><circle cx="128" cy="128" r="92" fill="none" stroke="#0275e8" stroke-opacity=".55" stroke-width="19" stroke-dasharray="0.0000 578.0530" transform="rotate(-90 128 128)"/><circle cx="128" cy="128" r="92" fill="none" stroke="#54e9ff" stroke-width="12" stroke-dasharray="0.0000 578.0530" transform="rotate(-90 128 128)"/><circle cx="128" cy="128" r="92" fill="none" stroke="#d7ffff" stroke-opacity=".7" stroke-width="3" stroke-dasharray="0.0000 578.0530" transform="rotate(-90 128 128)"/></g><g transform="translate(256 0)"><circle cx="128" cy="128" r="92" fill="none" stroke="#0275e8" stroke-opacity=".55" stroke-width="19" stroke-dasharray="9.1754 578.0530" transform="rotate(-90 128 128)"/><circle cx="128" cy="128" r="92" fill="none" stroke="#54e9ff" stroke-width="12" stroke-dasharray="9.1754 578.0530" transform="rotate(-90 128 128)"/><circle cx="128" cy="128" r="92" fill="none" stroke="#d7ffff" stroke-opacity=".7" stroke-width="3" stroke-dasharray="9.1754 578.0530" transform="rotate(-90 128 128)"/></g><g transform="translate(512 0)"><circle cx="128" cy="128" r="92" fill="none" stroke="#0275e8" stroke-opacity=".55" stroke-width="19" stroke-dasharray="18.3509 578.0530" transform="rotate(-90 128 128)"/><circle cx="128" cy="128" r="92" fill="none" stroke="#54e9ff" stroke-width="12" stroke-dasharray="18.3509 578.0530" transform="rotate(-90 128 128)"/><circle cx="128" cy="128" r="92" fill="none" stroke="#d7ffff" stroke-opacity=".7" stroke-width="3" stroke-dasharray="18.3509 578.0530" transform="rotate(-90 128 128)"/></g><g transform="translate(768 0)"><circle cx="128" cy="128" r="92" fill="none" stroke="#0275e8" stroke-opacity=".55" stroke-width="19" stroke-dasharray="27.5263 578.0530" transform="rotate(-90 128 128)"/><circle cx="128" cy="128" r="92" fill="none" stroke="#54e9ff" stroke-width="12" stroke-dasharray="27.5263 578.0530" transform="rotate(-90 128 128)"/><circle cx="128" cy="128" r="92" fill="none" stroke="#d7ffff" stroke-opacity=".7" stroke-width="3" stroke-dasharray="27.5263 578.0530" transform="rotate(-90 128 128)"/></g><g transform="translate(1024 0)"><circle cx="128" cy="128" r="92" fill="none" stroke="#0275e8" stroke-opacity=".55" stroke-width="19" stroke-dasharray="36.7018 578.0530" transform="rotate(-90 128 128)"/><circle cx="128" cy="128" r="92" fill="none" stroke="#54e9ff" stroke-width="12" stroke-dasharray="36.7018 578.0530" transform="rotate(-90 128 128)"/><circle cx="128" cy="128" r="92" fill="none" stroke="#d7ffff" stroke-opacity=".7" stroke-width="3" stroke-dasharray="36.7018 578.0530" transform="rotate(-90 128 128)"/></g><g transform="translate(1280 0)"><circle cx="128" cy="128" r="92" fill="none" stroke="#0275e8" stroke-opacity=".55" stroke-width="19" stroke-dasharray="45.8772 578.0530" transform="rotate(-90 128 128)"/><circle cx="128" cy="128" r="92" fill="none" stroke="#54e9ff" stroke-width="12" stroke-dasharray="45.8772 578.0530" transform="rotate(-90 128 128)"/><circle cx="128" cy="128" r="92" fill="none" stroke="#d7ffff" stroke-opacity=".7" stroke-width="3" stroke-dasharray="45.8772 578.0530" transform="rotate(-90 128 128)"/></g><g transform="translate(1536 0)"><circle cx="128" cy="128" r="92" fill="none" stroke="#0275e8" stroke-opacity=".55" stroke-width="19" stroke-dasharray="55.0527 578.0530" transform="rotate(-90 128 128)"/><circle cx="128" cy="128" r="92" fill="none" stroke="#54e9ff" stroke-width="12" stroke-dasharray="55.0527 578.0530" transform="rotate(-90 128 128)"/><circle cx="128" cy="128" r="92" fill="none" stroke="#d7ffff" stroke-opacity=".7" stroke-width="3" stroke-dasharray="55.0527 578.0530" transform="rotate(-90 128 128)"/></g><g transform="translate(1792 0)"><circle cx="128" cy="128" r="92" fill="none" stroke="#0275e8" stroke-opacity=".55" stroke-width="19" stroke-dasharray="64.2281 578.0530" transform="rotate(-90 128 128)"/><circle cx="128" cy="128" r="92" fill="none" stroke="#54e9ff" stroke-width="12" stroke-dasharray="64.2281 578.0530" transform="rotate(-90 128 128)"/><circle cx="128" cy="128" r="92" fill="none" stroke="#d7ffff" stroke-opacity=".7" stroke-width="3" stroke-dasharray="64.2281 578.0530" transform="rotate(-90 128 128)"/></g><g transform="translate(0 256)"><circle cx="128" cy="128" r="92" fill="none" stroke="#0275e8" stroke-opacity=".55" stroke-width="19" stroke-dasharray="73.4036 578.0530" transform="rotate(-90 128 128)"/><circle cx="128" cy="128" r="92" fill="none" stroke="#54e9ff" stroke-width="12" stroke-dasharray="73.4036 578.0530" transform="rotate(-90 128 128)"/><circle cx="128" cy="128" r="92" fill="none" stroke="#d7ffff" stroke-opacity=".7" stroke-width="3" stroke-dasharray="73.4036 578.0530" transform="rotate(-90 128 128)"/></g><g transform="translate(256 256)"><circle cx="128" cy="128" r="92" fill="none" stroke="#0275e8" stroke-opacity=".55" stroke-width="19" stroke-dasharray="82.5790 578.0530" transform="rotate(-90 128 128)"/><circle cx="128" cy="128" r="92" fill="none" stroke="#54e9ff" stroke-width="12" stroke-dasharray="82.5790 578.0530" transform="rotate(-90 128 128)"/><circle cx="128" cy="128" r="92" fill="none" stroke="#d7ffff" stroke-opacity=".7" stroke-width="3" stroke-dasharray="82.5790 578.0530" transform="rotate(-90 128 128)"/></g><g transform="translate(512 256)"><circle cx="128" cy="128" r="92" fill="none" stroke="#0275e8" stroke-opacity=".55" stroke-width="19" stroke-dasharray="91.7545 578.0530" transform="rotate(-90 128 128)"/><circle cx="128" cy="128" r="92" fill="none" stroke="#54e9ff" stroke-width="12" stroke-dasharray="91.7545 578.0530" transform="rotate(-90 128 128)"/><circle cx="128" cy="128" r="92" fill="none" stroke="#d7ffff" stroke-opacity=".7" stroke-width="3" stroke-dasharray="91.7545 578.0530" transform="rotate(-90 128 128)"/></g><g transform="translate(768 256)"><circle cx="128" cy="128" r="92" fill="none" stroke="#0275e8" stroke-opacity=".55" stroke-width="19" stroke-dasharray="100.9299 578.0530" transform="rotate(-90 128 128)"/><circle cx="128" cy="128" r="92" fill="none" stroke="#54e9ff" stroke-width="12" stroke-dasharray="100.9299 578.0530" transform="rotate(-90 128 128)"/><circle cx="128" cy="128" r="92" fill="none" stroke="#d7ffff" stroke-opacity=".7" stroke-width="3" stroke-dasharray="100.9299 578.0530" transform="rotate(-90 128 128)"/></g><g transform="translate(1024 256)"><circle cx="128" cy="128" r="92" fill="none" stroke="#0275e8" stroke-opacity=".55" stroke-width="19" stroke-dasharray="110.1053 578.0530" transform="rotate(-90 128 128)"/><circle cx="128" cy="128" r="92" fill="none" stroke="#54e9ff" stroke-width="12" stroke-dasharray="110.1053 578.0530" transform="rotate(-90 128 128)"/><circle cx="128" cy="128" r="92" fill="none" stroke="#d7ffff" stroke-opacity=".7" stroke-width="3" stroke-dasharray="110.1053 578.0530" transform="rotate(-90 128 128)"/></g><g transform="translate(1280 256)"><circle cx="128" cy="128" r="92" fill="none" stroke="#0275e8" stroke-opacity=".55" stroke-width="19" stroke-dasharray="119.2808 578.0530" transform="rotate(-90 128 128)"/><circle cx="128" cy="128" r="92" fill="none" stroke="#54e9ff" stroke-width="12" stroke-dasharray="119.2808 578.0530" transform="rotate(-90 128 128)"/><circle cx="128" cy="128" r="92" fill="none" stroke="#d7ffff" stroke-opacity=".7" stroke-width="3" stroke-dasharray="119.2808 578.0530" transform="rotate(-90 128 128)"/></g><g transform="translate(1536 256)"><circle cx="128" cy="128" r="92" fill="none" stroke="#0275e8" stroke-opacity=".55" stroke-width="19" stroke-dasharray="128.4562 578.0530" transform="rotate(-90 128 128)"/><circle cx="128" cy="128" r="92" fill="none" stroke="#54e9ff" stroke-width="12" stroke-dasharray="128.4562 578.0530" transform="rotate(-90 128 128)"/><circle cx="128" cy="128" r="92" fill="none" stroke="#d7ffff" stroke-opacity=".7" stroke-width="3" stroke-dasharray="128.4562 578.0530" transform="rotate(-90 128 128)"/></g><g transform="translate(1792 256)"><circle cx="128" cy="128" r="92" fill="none" stroke="#0275e8" stroke-opacity=".55" stroke-width="19" stroke-dasharray="137.6317 578.0530" transform="rotate(-90 128 128)"/><circle cx="128" cy="128" r="92" fill="none" stroke="#54e9ff" stroke-width="12" stroke-dasharray="137.6317 578.0530" transform="rotate(-90 128 128)"/><circle cx="128" cy="128" r="92" fill="none" stroke="#d7ffff" stroke-opacity=".7" stroke-width="3" stroke-dasharray="137.6317 578.0530" transform="rotate(-90 128 128)"/></g><g transform="translate(0 512)"><circle cx="128" cy="128" r="92" fill="none" stroke="#0275e8" stroke-opacity=".55" stroke-width="19" stroke-dasharray="146.8071 578.0530" transform="rotate(-90 128 128)"/><circle cx="128" cy="128" r="92" fill="none" stroke="#54e9ff" stroke-width="12" stroke-dasharray="146.8071 578.0530" transform="rotate(-90 128 128)"/><circle cx="128" cy="128" r="92" fill="none" stroke="#d7ffff" stroke-opacity=".7" stroke-width="3" stroke-dasharray="146.8071 578.0530" transform="rotate(-90 128 128)"/></g><g transform="translate(256 512)"><circle cx="128" cy="128" r="92" fill="none" stroke="#0275e8" stroke-opacity=".55" stroke-width="19" stroke-dasharray="155.9826 578.0530" transform="rotate(-90 128 128)"/><circle cx="128" cy="128" r="92" fill="none" stroke="#54e9ff" stroke-width="12" stroke-dasharray="155.9826 578.0530" transform="rotate(-90 128 128)"/><circle cx="128" cy="128" r="92" fill="none" stroke="#d7ffff" stroke-opacity=".7" stroke-width="3" stroke-dasharray="155.9826 578.0530" transform="rotate(-90 128 128)"/></g><g transform="translate(512 512)"><circle cx="128" cy="128" r="92" fill="none" stroke="#0275e8" stroke-opacity=".55" stroke-width="19" stroke-dasharray="165.1580 578.0530" transform="rotate(-90 128 128)"/><circle cx="128" cy="128" r="92" fill="none" stroke="#54e9ff" stroke-width="12" stroke-dasharray="165.1580 578.0530" transform="rotate(-90 128 128)"/><circle cx="128" cy="128" r="92" fill="none" stroke="#d7ffff" stroke-opacity=".7" stroke-width="3" stroke-dasharray="165.1580 578.0530" transform="rotate(-90 128 128)"/></g><g transform="translate(768 512)"><circle cx="128" cy="128" r="92" fill="none" stroke="#0275e8" stroke-opacity=".55" stroke-width="19" stroke-dasharray="174.3335 578.0530" transform="rotate(-90 128 128)"/><circle cx="128" cy="128" r="92" fill="none" stroke="#54e9ff" stroke-width="12" stroke-dasharray="174.3335 578.0530" transform="rotate(-90 128 128)"/><circle cx="128" cy="128" r="92" fill="none" stroke="#d7ffff" stroke-opacity=".7" stroke-width="3" stroke-dasharray="174.3335 578.0530" transform="rotate(-90 128 128)"/></g><g transform="translate(1024 512)"><circle cx="128" cy="128" r="92" fill="none" stroke="#0275e8" stroke-opacity=".55" stroke-width="19" stroke-dasharray="183.5089 578.0530" transform="rotate(-90 128 128)"/><circle cx="128" cy="128" r="92" fill="none" stroke="#54e9ff" stroke-width="12" stroke-dasharray="183.5089 578.0530" transform="rotate(-90 128 128)"/><circle cx="128" cy="128" r="92" fill="none" stroke="#d7ffff" stroke-opacity=".7" stroke-width="3" stroke-dasharray="183.5089 578.0530" transform="rotate(-90 128 128)"/></g><g transform="translate(1280 512)"><circle cx="128" cy="128" r="92" fill="none" stroke="#0275e8" stroke-opacity=".55" stroke-width="19" stroke-dasharray="192.6843 578.0530" transform="rotate(-90 128 128)"/><circle cx="128" cy="128" r="92" fill="none" stroke="#54e9ff" stroke-width="12" stroke-dasharray="192.6843 578.0530" transform="rotate(-90 128 128)"/><circle cx="128" cy="128" r="92" fill="none" stroke="#d7ffff" stroke-opacity=".7" stroke-width="3" stroke-dasharray="192.6843 578.0530" transform="rotate(-90 128 128)"/></g><g transform="translate(1536 512)"><circle cx="128" cy="128" r="92" fill="none" stroke="#0275e8" stroke-opacity=".55" stroke-width="19" stroke-dasharray="201.8598 578.0530" transform="rotate(-90 128 128)"/><circle cx="128" cy="128" r="92" fill="none" stroke="#54e9ff" stroke-width="12" stroke-dasharray="201.8598 578.0530" transform="rotate(-90 128 128)"/><circle cx="128" cy="128" r="92" fill="none" stroke="#d7ffff" stroke-opacity=".7" stroke-width="3" stroke-dasharray="201.8598 578.0530" transform="rotate(-90 128 128)"/></g><g transform="translate(1792 512)"><circle cx="128" cy="128" r="92" fill="none" stroke="#0275e8" stroke-opacity=".55" stroke-width="19" stroke-dasharray="211.0352 578.0530" transform="rotate(-90 128 128)"/><circle cx="128" cy="128" r="92" fill="none" stroke="#54e9ff" stroke-width="12" stroke-dasharray="211.0352 578.0530" transform="rotate(-90 128 128)"/><circle cx="128" cy="128" r="92" fill="none" stroke="#d7ffff" stroke-opacity=".7" stroke-width="3" stroke-dasharray="211.0352 578.0530" transform="rotate(-90 128 128)"/></g><g transform="translate(0 768)"><circle cx="128" cy="128" r="92" fill="none" stroke="#0275e8" stroke-opacity=".55" stroke-width="19" stroke-dasharray="220.2107 578.0530" transform="rotate(-90 128 128)"/><circle cx="128" cy="128" r="92" fill="none" stroke="#54e9ff" stroke-width="12" stroke-dasharray="220.2107 578.0530" transform="rotate(-90 128 128)"/><circle cx="128" cy="128" r="92" fill="none" stroke="#d7ffff" stroke-opacity=".7" stroke-width="3" stroke-dasharray="220.2107 578.0530" transform="rotate(-90 128 128)"/></g><g transform="translate(256 768)"><circle cx="128" cy="128" r="92" fill="none" stroke="#0275e8" stroke-opacity=".55" stroke-width="19" stroke-dasharray="229.3861 578.0530" transform="rotate(-90 128 128)"/><circle cx="128" cy="128" r="92" fill="none" stroke="#54e9ff" stroke-width="12" stroke-dasharray="229.3861 578.0530" transform="rotate(-90 128 128)"/><circle cx="128" cy="128" r="92" fill="none" stroke="#d7ffff" stroke-opacity=".7" stroke-width="3" stroke-dasharray="229.3861 578.0530" transform="rotate(-90 128 128)"/></g><g transform="translate(512 768)"><circle cx="128" cy="128" r="92" fill="none" stroke="#0275e8" stroke-opacity=".55" stroke-width="19" stroke-dasharray="238.5616 578.0530" transform="rotate(-90 128 128)"/><circle cx="128" cy="128" r="92" fill="none" stroke="#54e9ff" stroke-width="12" stroke-dasharray="238.5616 578.0530" transform="rotate(-90 128 128)"/><circle cx="128" cy="128" r="92" fill="none" stroke="#d7ffff" stroke-opacity=".7" stroke-width="3" stroke-dasharray="238.5616 578.0530" transform="rotate(-90 128 128)"/></g><g transform="translate(768 768)"><circle cx="128" cy="128" r="92" fill="none" stroke="#0275e8" stroke-opacity=".55" stroke-width="19" stroke-dasharray="247.7370 578.0530" transform="rotate(-90 128 128)"/><circle cx="128" cy="128" r="92" fill="none" stroke="#54e9ff" stroke-width="12" stroke-dasharray="247.7370 578.0530" transform="rotate(-90 128 128)"/><circle cx="128" cy="128" r="92" fill="none" stroke="#d7ffff" stroke-opacity=".7" stroke-width="3" stroke-dasharray="247.7370 578.0530" transform="rotate(-90 128 128)"/></g><g transform="translate(1024 768)"><circle cx="128" cy="128" r="92" fill="none" stroke="#0275e8" stroke-opacity=".55" stroke-width="19" stroke-dasharray="256.9125 578.0530" transform="rotate(-90 128 128)"/><circle cx="128" cy="128" r="92" fill="none" stroke="#54e9ff" stroke-width="12" stroke-dasharray="256.9125 578.0530" transform="rotate(-90 128 128)"/><circle cx="128" cy="128" r="92" fill="none" stroke="#d7ffff" stroke-opacity=".7" stroke-width="3" stroke-dasharray="256.9125 578.0530" transform="rotate(-90 128 128)"/></g><g transform="translate(1280 768)"><circle cx="128" cy="128" r="92" fill="none" stroke="#0275e8" stroke-opacity=".55" stroke-width="19" stroke-dasharray="266.0879 578.0530" transform="rotate(-90 128 128)"/><circle cx="128" cy="128" r="92" fill="none" stroke="#54e9ff" stroke-width="12" stroke-dasharray="266.0879 578.0530" transform="rotate(-90 128 128)"/><circle cx="128" cy="128" r="92" fill="none" stroke="#d7ffff" stroke-opacity=".7" stroke-width="3" stroke-dasharray="266.0879 578.0530" transform="rotate(-90 128 128)"/></g><g transform="translate(1536 768)"><circle cx="128" cy="128" r="92" fill="none" stroke="#0275e8" stroke-opacity=".55" stroke-width="19" stroke-dasharray="275.2634 578.0530" transform="rotate(-90 128 128)"/><circle cx="128" cy="128" r="92" fill="none" stroke="#54e9ff" stroke-width="12" stroke-dasharray="275.2634 578.0530" transform="rotate(-90 128 128)"/><circle cx="128" cy="128" r="92" fill="none" stroke="#d7ffff" stroke-opacity=".7" stroke-width="3" stroke-dasharray="275.2634 578.0530" transform="rotate(-90 128 128)"/></g><g transform="translate(1792 768)"><circle cx="128" cy="128" r="92" fill="none" stroke="#0275e8" stroke-opacity=".55" stroke-width="19" stroke-dasharray="284.4388 578.0530" transform="rotate(-90 128 128)"/><circle cx="128" cy="128" r="92" fill="none" stroke="#54e9ff" stroke-width="12" stroke-dasharray="284.4388 578.0530" transform="rotate(-90 128 128)"/><circle cx="128" cy="128" r="92" fill="none" stroke="#d7ffff" stroke-opacity=".7" stroke-width="3" stroke-dasharray="284.4388 578.0530" transform="rotate(-90 128 128)"/></g><g transform="translate(0 1024)"><circle cx="128" cy="128" r="92" fill="none" stroke="#0275e8" stroke-opacity=".55" stroke-width="19" stroke-dasharray="293.6142 578.0530" transform="rotate(-90 128 128)"/><circle cx="128" cy="128" r="92" fill="none" stroke="#54e9ff" stroke-width="12" stroke-dasharray="293.6142 578.0530" transform="rotate(-90 128 128)"/><circle cx="128" cy="128" r="92" fill="none" stroke="#d7ffff" stroke-opacity=".7" stroke-width="3" stroke-dasharray="293.6142 578.0530" transform="rotate(-90 128 128)"/></g><g transform="translate(256 1024)"><circle cx="128" cy="128" r="92" fill="none" stroke="#0275e8" stroke-opacity=".55" stroke-width="19" stroke-dasharray="302.7897 578.0530" transform="rotate(-90 128 128)"/><circle cx="128" cy="128" r="92" fill="none" stroke="#54e9ff" stroke-width="12" stroke-dasharray="302.7897 578.0530" transform="rotate(-90 128 128)"/><circle cx="128" cy="128" r="92" fill="none" stroke="#d7ffff" stroke-opacity=".7" stroke-width="3" stroke-dasharray="302.7897 578.0530" transform="rotate(-90 128 128)"/></g><g transform="translate(512 1024)"><circle cx="128" cy="128" r="92" fill="none" stroke="#0275e8" stroke-opacity=".55" stroke-width="19" stroke-dasharray="311.9651 578.0530" transform="rotate(-90 128 128)"/><circle cx="128" cy="128" r="92" fill="none" stroke="#54e9ff" stroke-width="12" stroke-dasharray="311.9651 578.0530" transform="rotate(-90 128 128)"/><circle cx="128" cy="128" r="92" fill="none" stroke="#d7ffff" stroke-opacity=".7" stroke-width="3" stroke-dasharray="311.9651 578.0530" transform="rotate(-90 128 128)"/></g><g transform="translate(768 1024)"><circle cx="128" cy="128" r="92" fill="none" stroke="#0275e8" stroke-opacity=".55" stroke-width="19" stroke-dasharray="321.1406 578.0530" transform="rotate(-90 128 128)"/><circle cx="128" cy="128" r="92" fill="none" stroke="#54e9ff" stroke-width="12" stroke-dasharray="321.1406 578.0530" transform="rotate(-90 128 128)"/><circle cx="128" cy="128" r="92" fill="none" stroke="#d7ffff" stroke-opacity=".7" stroke-width="3" stroke-dasharray="321.1406 578.0530" transform="rotate(-90 128 128)"/></g><g transform="translate(1024 1024)"><circle cx="128" cy="128" r="92" fill="none" stroke="#0275e8" stroke-opacity=".55" stroke-width="19" stroke-dasharray="330.3160 578.0530" transform="rotate(-90 128 128)"/><circle cx="128" cy="128" r="92" fill="none" stroke="#54e9ff" stroke-width="12" stroke-dasharray="330.3160 578.0530" transform="rotate(-90 128 128)"/><circle cx="128" cy="128" r="92" fill="none" stroke="#d7ffff" stroke-opacity=".7" stroke-width="3" stroke-dasharray="330.3160 578.0530" transform="rotate(-90 128 128)"/></g><g transform="translate(1280 1024)"><circle cx="128" cy="128" r="92" fill="none" stroke="#0275e8" stroke-opacity=".55" stroke-width="19" stroke-dasharray="339.4915 578.0530" transform="rotate(-90 128 128)"/><circle cx="128" cy="128" r="92" fill="none" stroke="#54e9ff" stroke-width="12" stroke-dasharray="339.4915 578.0530" transform="rotate(-90 128 128)"/><circle cx="128" cy="128" r="92" fill="none" stroke="#d7ffff" stroke-opacity=".7" stroke-width="3" stroke-dasharray="339.4915 578.0530" transform="rotate(-90 128 128)"/></g><g transform="translate(1536 1024)"><circle cx="128" cy="128" r="92" fill="none" stroke="#0275e8" stroke-opacity=".55" stroke-width="19" stroke-dasharray="348.6669 578.0530" transform="rotate(-90 128 128)"/><circle cx="128" cy="128" r="92" fill="none" stroke="#54e9ff" stroke-width="12" stroke-dasharray="348.6669 578.0530" transform="rotate(-90 128 128)"/><circle cx="128" cy="128" r="92" fill="none" stroke="#d7ffff" stroke-opacity=".7" stroke-width="3" stroke-dasharray="348.6669 578.0530" transform="rotate(-90 128 128)"/></g><g transform="translate(1792 1024)"><circle cx="128" cy="128" r="92" fill="none" stroke="#0275e8" stroke-opacity=".55" stroke-width="19" stroke-dasharray="357.8424 578.0530" transform="rotate(-90 128 128)"/><circle cx="128" cy="128" r="92" fill="none" stroke="#54e9ff" stroke-width="12" stroke-dasharray="357.8424 578.0530" transform="rotate(-90 128 128)"/><circle cx="128" cy="128" r="92" fill="none" stroke="#d7ffff" stroke-opacity=".7" stroke-width="3" stroke-dasharray="357.8424 578.0530" transform="rotate(-90 128 128)"/></g><g transform="translate(0 1280)"><circle cx="128" cy="128" r="92" fill="none" stroke="#0275e8" stroke-opacity=".55" stroke-width="19" stroke-dasharray="367.0178 578.0530" transform="rotate(-90 128 128)"/><circle cx="128" cy="128" r="92" fill="none" stroke="#54e9ff" stroke-width="12" stroke-dasharray="367.0178 578.0530" transform="rotate(-90 128 128)"/><circle cx="128" cy="128" r="92" fill="none" stroke="#d7ffff" stroke-opacity=".7" stroke-width="3" stroke-dasharray="367.0178 578.0530" transform="rotate(-90 128 128)"/></g><g transform="translate(256 1280)"><circle cx="128" cy="128" r="92" fill="none" stroke="#0275e8" stroke-opacity=".55" stroke-width="19" stroke-dasharray="376.1933 578.0530" transform="rotate(-90 128 128)"/><circle cx="128" cy="128" r="92" fill="none" stroke="#54e9ff" stroke-width="12" stroke-dasharray="376.1933 578.0530" transform="rotate(-90 128 128)"/><circle cx="128" cy="128" r="92" fill="none" stroke="#d7ffff" stroke-opacity=".7" stroke-width="3" stroke-dasharray="376.1933 578.0530" transform="rotate(-90 128 128)"/></g><g transform="translate(512 1280)"><circle cx="128" cy="128" r="92" fill="none" stroke="#0275e8" stroke-opacity=".55" stroke-width="19" stroke-dasharray="385.3687 578.0530" transform="rotate(-90 128 128)"/><circle cx="128" cy="128" r="92" fill="none" stroke="#54e9ff" stroke-width="12" stroke-dasharray="385.3687 578.0530" transform="rotate(-90 128 128)"/><circle cx="128" cy="128" r="92" fill="none" stroke="#d7ffff" stroke-opacity=".7" stroke-width="3" stroke-dasharray="385.3687 578.0530" transform="rotate(-90 128 128)"/></g><g transform="translate(768 1280)"><circle cx="128" cy="128" r="92" fill="none" stroke="#0275e8" stroke-opacity=".55" stroke-width="19" stroke-dasharray="394.5441 578.0530" transform="rotate(-90 128 128)"/><circle cx="128" cy="128" r="92" fill="none" stroke="#54e9ff" stroke-width="12" stroke-dasharray="394.5441 578.0530" transform="rotate(-90 128 128)"/><circle cx="128" cy="128" r="92" fill="none" stroke="#d7ffff" stroke-opacity=".7" stroke-width="3" stroke-dasharray="394.5441 578.0530" transform="rotate(-90 128 128)"/></g><g transform="translate(1024 1280)"><circle cx="128" cy="128" r="92" fill="none" stroke="#0275e8" stroke-opacity=".55" stroke-width="19" stroke-dasharray="403.7196 578.0530" transform="rotate(-90 128 128)"/><circle cx="128" cy="128" r="92" fill="none" stroke="#54e9ff" stroke-width="12" stroke-dasharray="403.7196 578.0530" transform="rotate(-90 128 128)"/><circle cx="128" cy="128" r="92" fill="none" stroke="#d7ffff" stroke-opacity=".7" stroke-width="3" stroke-dasharray="403.7196 578.0530" transform="rotate(-90 128 128)"/></g><g transform="translate(1280 1280)"><circle cx="128" cy="128" r="92" fill="none" stroke="#0275e8" stroke-opacity=".55" stroke-width="19" stroke-dasharray="412.8950 578.0530" transform="rotate(-90 128 128)"/><circle cx="128" cy="128" r="92" fill="none" stroke="#54e9ff" stroke-width="12" stroke-dasharray="412.8950 578.0530" transform="rotate(-90 128 128)"/><circle cx="128" cy="128" r="92" fill="none" stroke="#d7ffff" stroke-opacity=".7" stroke-width="3" stroke-dasharray="412.8950 578.0530" transform="rotate(-90 128 128)"/></g><g transform="translate(1536 1280)"><circle cx="128" cy="128" r="92" fill="none" stroke="#0275e8" stroke-opacity=".55" stroke-width="19" stroke-dasharray="422.0705 578.0530" transform="rotate(-90 128 128)"/><circle cx="128" cy="128" r="92" fill="none" stroke="#54e9ff" stroke-width="12" stroke-dasharray="422.0705 578.0530" transform="rotate(-90 128 128)"/><circle cx="128" cy="128" r="92" fill="none" stroke="#d7ffff" stroke-opacity=".7" stroke-width="3" stroke-dasharray="422.0705 578.0530" transform="rotate(-90 128 128)"/></g><g transform="translate(1792 1280)"><circle cx="128" cy="128" r="92" fill="none" stroke="#0275e8" stroke-opacity=".55" stroke-width="19" stroke-dasharray="431.2459 578.0530" transform="rotate(-90 128 128)"/><circle cx="128" cy="128" r="92" fill="none" stroke="#54e9ff" stroke-width="12" stroke-dasharray="431.2459 578.0530" transform="rotate(-90 128 128)"/><circle cx="128" cy="128" r="92" fill="none" stroke="#d7ffff" stroke-opacity=".7" stroke-width="3" stroke-dasharray="431.2459 578.0530" transform="rotate(-90 128 128)"/></g><g transform="translate(0 1536)"><circle cx="128" cy="128" r="92" fill="none" stroke="#0275e8" stroke-opacity=".55" stroke-width="19" stroke-dasharray="440.4214 578.0530" transform="rotate(-90 128 128)"/><circle cx="128" cy="128" r="92" fill="none" stroke="#54e9ff" stroke-width="12" stroke-dasharray="440.4214 578.0530" transform="rotate(-90 128 128)"/><circle cx="128" cy="128" r="92" fill="none" stroke="#d7ffff" stroke-opacity=".7" stroke-width="3" stroke-dasharray="440.4214 578.0530" transform="rotate(-90 128 128)"/></g><g transform="translate(256 1536)"><circle cx="128" cy="128" r="92" fill="none" stroke="#0275e8" stroke-opacity=".55" stroke-width="19" stroke-dasharray="449.5968 578.0530" transform="rotate(-90 128 128)"/><circle cx="128" cy="128" r="92" fill="none" stroke="#54e9ff" stroke-width="12" stroke-dasharray="449.5968 578.0530" transform="rotate(-90 128 128)"/><circle cx="128" cy="128" r="92" fill="none" stroke="#d7ffff" stroke-opacity=".7" stroke-width="3" stroke-dasharray="449.5968 578.0530" transform="rotate(-90 128 128)"/></g><g transform="translate(512 1536)"><circle cx="128" cy="128" r="92" fill="none" stroke="#0275e8" stroke-opacity=".55" stroke-width="19" stroke-dasharray="458.7723 578.0530" transform="rotate(-90 128 128)"/><circle cx="128" cy="128" r="92" fill="none" stroke="#54e9ff" stroke-width="12" stroke-dasharray="458.7723 578.0530" transform="rotate(-90 128 128)"/><circle cx="128" cy="128" r="92" fill="none" stroke="#d7ffff" stroke-opacity=".7" stroke-width="3" stroke-dasharray="458.7723 578.0530" transform="rotate(-90 128 128)"/></g><g transform="translate(768 1536)"><circle cx="128" cy="128" r="92" fill="none" stroke="#0275e8" stroke-opacity=".55" stroke-width="19" stroke-dasharray="467.9477 578.0530" transform="rotate(-90 128 128)"/><circle cx="128" cy="128" r="92" fill="none" stroke="#54e9ff" stroke-width="12" stroke-dasharray="467.9477 578.0530" transform="rotate(-90 128 128)"/><circle cx="128" cy="128" r="92" fill="none" stroke="#d7ffff" stroke-opacity=".7" stroke-width="3" stroke-dasharray="467.9477 578.0530" transform="rotate(-90 128 128)"/></g><g transform="translate(1024 1536)"><circle cx="128" cy="128" r="92" fill="none" stroke="#0275e8" stroke-opacity=".55" stroke-width="19" stroke-dasharray="477.1232 578.0530" transform="rotate(-90 128 128)"/><circle cx="128" cy="128" r="92" fill="none" stroke="#54e9ff" stroke-width="12" stroke-dasharray="477.1232 578.0530" transform="rotate(-90 128 128)"/><circle cx="128" cy="128" r="92" fill="none" stroke="#d7ffff" stroke-opacity=".7" stroke-width="3" stroke-dasharray="477.1232 578.0530" transform="rotate(-90 128 128)"/></g><g transform="translate(1280 1536)"><circle cx="128" cy="128" r="92" fill="none" stroke="#0275e8" stroke-opacity=".55" stroke-width="19" stroke-dasharray="486.2986 578.0530" transform="rotate(-90 128 128)"/><circle cx="128" cy="128" r="92" fill="none" stroke="#54e9ff" stroke-width="12" stroke-dasharray="486.2986 578.0530" transform="rotate(-90 128 128)"/><circle cx="128" cy="128" r="92" fill="none" stroke="#d7ffff" stroke-opacity=".7" stroke-width="3" stroke-dasharray="486.2986 578.0530" transform="rotate(-90 128 128)"/></g><g transform="translate(1536 1536)"><circle cx="128" cy="128" r="92" fill="none" stroke="#0275e8" stroke-opacity=".55" stroke-width="19" stroke-dasharray="495.4740 578.0530" transform="rotate(-90 128 128)"/><circle cx="128" cy="128" r="92" fill="none" stroke="#54e9ff" stroke-width="12" stroke-dasharray="495.4740 578.0530" transform="rotate(-90 128 128)"/><circle cx="128" cy="128" r="92" fill="none" stroke="#d7ffff" stroke-opacity=".7" stroke-width="3" stroke-dasharray="495.4740 578.0530" transform="rotate(-90 128 128)"/></g><g transform="translate(1792 1536)"><circle cx="128" cy="128" r="92" fill="none" stroke="#0275e8" stroke-opacity=".55" stroke-width="19" stroke-dasharray="504.6495 578.0530" transform="rotate(-90 128 128)"/><circle cx="128" cy="128" r="92" fill="none" stroke="#54e9ff" stroke-width="12" stroke-dasharray="504.6495 578.0530" transform="rotate(-90 128 128)"/><circle cx="128" cy="128" r="92" fill="none" stroke="#d7ffff" stroke-opacity=".7" stroke-width="3" stroke-dasharray="504.6495 578.0530" transform="rotate(-90 128 128)"/></g><g transform="translate(0 1792)"><circle cx="128" cy="128" r="92" fill="none" stroke="#0275e8" stroke-opacity=".55" stroke-width="19" stroke-dasharray="513.8249 578.0530" transform="rotate(-90 128 128)"/><circle cx="128" cy="128" r="92" fill="none" stroke="#54e9ff" stroke-width="12" stroke-dasharray="513.8249 578.0530" transform="rotate(-90 128 128)"/><circle cx="128" cy="128" r="92" fill="none" stroke="#d7ffff" stroke-opacity=".7" stroke-width="3" stroke-dasharray="513.8249 578.0530" transform="rotate(-90 128 128)"/></g><g transform="translate(256 1792)"><circle cx="128" cy="128" r="92" fill="none" stroke="#0275e8" stroke-opacity=".55" stroke-width="19" stroke-dasharray="523.0004 578.0530" transform="rotate(-90 128 128)"/><circle cx="128" cy="128" r="92" fill="none" stroke="#54e9ff" stroke-width="12" stroke-dasharray="523.0004 578.0530" transform="rotate(-90 128 128)"/><circle cx="128" cy="128" r="92" fill="none" stroke="#d7ffff" stroke-opacity=".7" stroke-width="3" stroke-dasharray="523.0004 578.0530" transform="rotate(-90 128 128)"/></g><g transform="translate(512 1792)"><circle cx="128" cy="128" r="92" fill="none" stroke="#0275e8" stroke-opacity=".55" stroke-width="19" stroke-dasharray="532.1758 578.0530" transform="rotate(-90 128 128)"/><circle cx="128" cy="128" r="92" fill="none" stroke="#54e9ff" stroke-width="12" stroke-dasharray="532.1758 578.0530" transform="rotate(-90 128 128)"/><circle cx="128" cy="128" r="92" fill="none" stroke="#d7ffff" stroke-opacity=".7" stroke-width="3" stroke-dasharray="532.1758 578.0530" transform="rotate(-90 128 128)"/></g><g transform="translate(768 1792)"><circle cx="128" cy="128" r="92" fill="none" stroke="#0275e8" stroke-opacity=".55" stroke-width="19" stroke-dasharray="541.3513 578.0530" transform="rotate(-90 128 128)"/><circle cx="128" cy="128" r="92" fill="none" stroke="#54e9ff" stroke-width="12" stroke-dasharray="541.3513 578.0530" transform="rotate(-90 128 128)"/><circle cx="128" cy="128" r="92" fill="none" stroke="#d7ffff" stroke-opacity=".7" stroke-width="3" stroke-dasharray="541.3513 578.0530" transform="rotate(-90 128 128)"/></g><g transform="translate(1024 1792)"><circle cx="128" cy="128" r="92" fill="none" stroke="#0275e8" stroke-opacity=".55" stroke-width="19" stroke-dasharray="550.5267 578.0530" transform="rotate(-90 128 128)"/><circle cx="128" cy="128" r="92" fill="none" stroke="#54e9ff" stroke-width="12" stroke-dasharray="550.5267 578.0530" transform="rotate(-90 128 128)"/><circle cx="128" cy="128" r="92" fill="none" stroke="#d7ffff" stroke-opacity=".7" stroke-width="3" stroke-dasharray="550.5267 578.0530" transform="rotate(-90 128 128)"/></g><g transform="translate(1280 1792)"><circle cx="128" cy="128" r="92" fill="none" stroke="#0275e8" stroke-opacity=".55" stroke-width="19" stroke-dasharray="559.7022 578.0530" transform="rotate(-90 128 128)"/><circle cx="128" cy="128" r="92" fill="none" stroke="#54e9ff" stroke-width="12" stroke-dasharray="559.7022 578.0530" transform="rotate(-90 128 128)"/><circle cx="128" cy="128" r="92" fill="none" stroke="#d7ffff" stroke-opacity=".7" stroke-width="3" stroke-dasharray="559.7022 578.0530" transform="rotate(-90 128 128)"/></g><g transform="translate(1536 1792)"><circle cx="128" cy="128" r="92" fill="none" stroke="#0275e8" stroke-opacity=".55" stroke-width="19" stroke-dasharray="568.8776 578.0530" transform="rotate(-90 128 128)"/><circle cx="128" cy="128" r="92" fill="none" stroke="#54e9ff" stroke-width="12" stroke-dasharray="568.8776 578.0530" transform="rotate(-90 128 128)"/><circle cx="128" cy="128" r="92" fill="none" stroke="#d7ffff" stroke-opacity=".7" stroke-width="3" stroke-dasharray="568.8776 578.0530" transform="rotate(-90 128 128)"/></g><g transform="translate(1792 1792)"><circle cx="128" cy="128" r="92" fill="none" stroke="#0275e8" stroke-opacity=".55" stroke-width="19" stroke-dasharray="578.0530 578.0530" transform="rotate(-90 128 128)"/><circle cx="128" cy="128" r="92" fill="none" stroke="#54e9ff" stroke-width="12" stroke-dasharray="578.0530 578.0530" transform="rotate(-90 128 128)"/><circle cx="128" cy="128" r="92" fill="none" stroke="#d7ffff" stroke-opacity=".7" stroke-width="3" stroke-dasharray="578.0530 578.0530" transform="rotate(-90 128 128)"/></g></svg>